<?xml version="1.0" encoding="UTF-8"?>
<svg version="1.1" xmlns="http://www.w3.org/2000/svg" width="2000" height="457">
<path d="M0 0 C0.78117187 0.6703125 1.56234375 1.340625 2.3671875 2.03125 C46.6962507 40.98268914 75.43472036 95.52598219 79.3515625 154.85546875 C81.73371054 197.93635314 73.5689355 239.88817517 53 278 C52.38640625 279.155 51.7728125 280.31 51.140625 281.5 C36.0829101 308.87766345 14.34290251 333.72386838 -11 352 C-12.0415625 352.763125 -13.083125 353.52625 -14.15625 354.3125 C-63.08767554 389.19430831 -122.93230216 402.31943902 -182.15625 393.0703125 C-214.97305615 387.53542952 -245.64180271 374.92451403 -273 356 C-273.69383789 355.52095215 -274.38767578 355.0419043 -275.10253906 354.54833984 C-285.93894655 346.96388126 -295.6349733 338.32338259 -305 329 C-305.57347168 328.43055664 -306.14694336 327.86111328 -306.73779297 327.27441406 C-320.90186103 313.03971263 -332.45895391 296.63314114 -342 279 C-342.35255859 278.34999023 -342.70511719 277.69998047 -343.06835938 277.03027344 C-371.84495221 223.28337256 -376.07128217 161.40107929 -359.05102539 103.28564453 C-348.32950596 68.59918999 -328.70196731 39.21132746 -304 13 C-303.31035156 12.2678125 -302.62070312 11.535625 -301.91015625 10.78125 C-296.65953522 5.36956697 -290.90409066 0.6779766 -285 -4 C-284.04609375 -4.78246094 -283.0921875 -5.56492188 -282.109375 -6.37109375 C-205.91987562 -67.4203721 -93.26878153 -67.66999666 0 0 Z M-158 84 C-158.37613877 88.8319454 -157.71167255 92.92866721 -156.43945312 97.57788086 C-156.09910034 98.83865952 -155.75874756 100.09943817 -155.40808105 101.39842224 C-155.03266088 102.75394876 -154.65704604 104.10942138 -154.28125 105.46484375 C-153.8993347 106.86710487 -153.51820248 108.26957948 -153.13781738 109.67225647 C-152.1394867 113.34535542 -151.13061056 117.01547521 -150.1194458 120.68505859 C-149.0875187 124.43737287 -148.06568093 128.19243146 -147.04296875 131.94726562 C-145.03846211 139.30088649 -143.02279718 146.65138675 -141 154 C-148.02514535 154.31601702 -155.0436246 154.48674239 -162.07543945 154.56152344 C-164.46100153 154.60344612 -166.84624089 154.67739052 -169.22973633 154.78515625 C-188.50821206 155.6245791 -188.50821206 155.6245791 -194.34918213 151.23425293 C-198.35578694 146.99174155 -201.20241648 142.22521058 -203.88711548 137.07220459 C-205.31394249 134.41543525 -206.91243019 132.17603769 -209 130 C-213.1134271 129.41236756 -214.50434664 129.66956442 -218 132 C-219.02981049 133.70981774 -219.02981049 133.70981774 -219 136 C-218.11759301 138.45543365 -217.16685038 140.74078974 -216.0859375 143.10546875 C-208.41514757 161.21825708 -205.06441791 173.87976102 -212.61199951 192.57235718 C-213.93521747 195.74853724 -215.31892758 198.86714393 -216.79980469 201.97436523 C-217.98505263 204.9623184 -218.35414123 206.83127587 -218 210 C-216.38442549 212.60287004 -215.22779546 212.94305113 -212.25 213.6875 C-207.06313853 212.5902793 -205.0743751 209.13100498 -202 205 C-201.57541504 204.43216797 -201.15083008 203.86433594 -200.71337891 203.27929688 C-199.31790801 201.40288426 -197.93656858 199.51713613 -196.5625 197.625 C-196.11293945 197.00608887 -195.66337891 196.38717773 -195.20019531 195.74951172 C-192.79202465 192.67705908 -192.79202465 192.67705908 -192 189 C-174.84 189 -157.68 189 -140 189 C-142.31 196.92 -144.62 204.84 -147 213 C-148.78104385 219.34719501 -150.55803911 225.6909338 -152.28271484 232.05297852 C-152.77051751 233.84463221 -153.26321583 235.63495864 -153.76025391 237.42407227 C-154.49657119 240.07552477 -155.2186289 242.73049068 -155.9375 245.38671875 C-156.16131348 246.18244797 -156.38512695 246.97817719 -156.61572266 247.79801941 C-157.68386578 251.81217984 -158.49352499 254.95772155 -157 259 C-154.83928533 261.07976712 -154.83928533 261.07976712 -152 262 C-146.66440454 260.86305265 -144.48086996 257.20122611 -141.5 253 C-140.7255957 251.93845703 -140.7255957 251.93845703 -139.93554688 250.85546875 C-138.278677 248.57851881 -136.63857125 246.29014429 -135 244 C-133.9174251 242.49945254 -132.83409621 240.99944874 -131.75 239.5 C-130.11629088 237.23905669 -128.48371478 234.9773525 -126.85522461 232.71264648 C-123.31077858 227.78819289 -119.71320673 222.90862469 -116.0625 218.0625 C-111.44571964 211.92601645 -106.83292149 205.78683807 -102.25 199.625 C-101.31812866 198.38375366 -101.31812866 198.38375366 -100.36743164 197.11743164 C-99.79758545 196.34906982 -99.22773926 195.58070801 -98.640625 194.7890625 C-98.13047852 194.10537598 -97.62033203 193.42168945 -97.09472656 192.71728516 C-95.82081919 191.05834441 -95.82081919 191.05834441 -96 189 C-94.89712646 189.02618408 -93.79425293 189.05236816 -92.65795898 189.0793457 C-88.49264522 189.17112929 -84.32741687 189.22770527 -80.16137695 189.2746582 C-78.37216064 189.29951511 -76.58304268 189.33341357 -74.79418945 189.37719727 C-58.26912908 189.770982 -43.15586107 187.46321756 -30 176.5 C-27.82638286 173.78297857 -26.82533626 172.49327472 -27 169 C-30.43062627 165.01893743 -33.93804732 162.69202627 -38.625 160.375 C-40.31496094 159.52035156 -40.31496094 159.52035156 -42.0390625 158.6484375 C-43.35091309 158.07905145 -44.67208809 157.53085065 -46 157 C-46.73726318 156.70448242 -47.47452637 156.40896484 -48.23413086 156.10449219 C-54.31439911 154.06143722 -59.78851613 153.89092436 -66.11328125 154.15625 C-94.67821839 155.29209703 -94.67821839 155.29209703 -101.171875 149.3828125 C-104.31998501 145.49178691 -106.53499431 141.18320109 -108.65283203 136.66503906 C-110.90059084 132.21840348 -113.96282084 128.42966914 -117 124.5 C-118.16420795 122.92877531 -119.32436632 121.35454202 -120.48046875 119.77734375 C-121.05716309 118.99472168 -121.63385742 118.21209961 -122.22802734 117.40576172 C-124.65546684 114.11008952 -127.08075246 110.81283428 -129.50610352 107.515625 C-131.26699479 105.12429704 -133.03165585 102.73579045 -134.796875 100.34765625 C-136.78306185 97.65925245 -138.75305797 94.96079232 -140.703125 92.24609375 C-141.10748779 91.68978271 -141.51185059 91.13347168 -141.9284668 90.56030273 C-142.96972067 89.12765397 -144.00284376 87.68910494 -145.03515625 86.25 C-147.15131496 83.82672482 -149.14873991 82.46169151 -152 81 C-154.54577546 81 -156.10711732 82.49540095 -158 84 Z " fill="#4E1B00" transform="translate(388,57)"/>
<path d="M0 0 C7.59 0 15.18 0 23 0 C23 11.88 23 23.76 23 36 C33.23 36 43.46 36 54 36 C54 24.12 54 12.24 54 0 C61.59 0 69.18 0 77 0 C77 37.62 77 75.24 77 114 C69.41 114 61.82 114 54 114 C54 95.19 54 76.38 54 57 C43.77 57 33.54 57 23 57 C23 75.81 23 94.62 23 114 C15.41 114 7.82 114 0 114 C0 76.38 0 38.76 0 0 Z " fill="#4E1B00" transform="translate(1054,156)"/>
<path d="M0 0 C7.59 0 15.18 0 23 0 C23.33 12.87 23.66 25.74 24 39 C27.7950819 33.74535482 27.7950819 33.74535482 31.58984375 28.49047852 C34.62069224 24.29319907 37.65284825 20.09687441 40.6875 15.90234375 C41.27442627 15.09071777 41.86135254 14.2790918 42.46606445 13.44287109 C43.59696995 11.87907467 44.72830443 10.31558838 45.86010742 8.75244141 C46.37420166 8.0413623 46.8882959 7.3302832 47.41796875 6.59765625 C47.86938232 5.97383057 48.3207959 5.35000488 48.78588867 4.70727539 C49.88699554 3.15890613 50.94608661 1.58087009 52 0 C54.70556641 -0.34057617 54.70556641 -0.34057617 58.1015625 -0.29296875 C59.31328125 -0.28330078 60.525 -0.27363281 61.7734375 -0.26367188 C63.04445313 -0.23853516 64.31546875 -0.21339844 65.625 -0.1875 C66.90375 -0.17396484 68.1825 -0.16042969 69.5 -0.14648438 C72.66708282 -0.11103196 75.83333541 -0.06161441 79 0 C77.84241546 3.11065615 76.66752269 5.72936718 74.63671875 8.35546875 C73.93373657 9.27622192 73.93373657 9.27622192 73.21655273 10.21557617 C72.71196533 10.86631104 72.20737793 11.5170459 71.6875 12.1875 C70.60797437 13.60309965 69.52990532 15.019811 68.453125 16.4375 C67.89044922 17.17742187 67.32777344 17.91734375 66.74804688 18.6796875 C63.7603752 22.6454461 60.84600082 26.663489 57.9375 30.6875 C57.38989014 31.44119873 56.84228027 32.19489746 56.27807617 32.97143555 C55.76220947 33.685979 55.24634277 34.40052246 54.71484375 35.13671875 C54.26230225 35.76280029 53.80976074 36.38888184 53.34350586 37.03393555 C51.79483698 39.3002322 50.39281244 41.63536283 49 44 C49.41548096 44.680625 49.83096191 45.36125 50.2590332 46.0625 C59.83304762 61.75871766 69.31047683 77.50800005 78.6652832 93.3359375 C79.42784566 94.62503045 80.19045793 95.91409394 80.953125 97.203125 C81.31166061 97.81015259 81.67019623 98.41718018 82.03959656 99.04260254 C83.98773062 102.33085194 85.98529087 105.57872193 88.046875 108.796875 C90 112 90 112 90 114 C80.76 114 71.52 114 62 114 C59.834375 110.225625 57.66875 106.45125 55.4375 102.5625 C49.49748565 92.23875242 43.44889752 81.99028504 37.27709961 71.80297852 C32.72014245 64.26595658 28.37434566 56.65510491 24 49 C23.67 70.45 23.34 91.9 23 114 C15.41 114 7.82 114 0 114 C0 76.38 0 38.76 0 0 Z " fill="#4E1B00" transform="translate(584,156)"/>
<path d="M0 0 C10.75909698 6.54479365 18.13011696 14.90641175 21.1640625 27.31640625 C21.5686438 30.45619437 21.64266309 33.52827861 21.6015625 36.69140625 C21.59326416 37.52140137 21.58496582 38.35139648 21.57641602 39.20654297 C21.27625754 50.1468386 17.76219051 58.38922545 10.1640625 66.31640625 C1.90561054 73.95101831 -7.01902854 77.719792 -18.4140625 77.609375 C-24.77635864 76.8397424 -31.50120633 74.87289369 -36.8359375 71.31640625 C-36.8359375 84.84640625 -36.8359375 98.37640625 -36.8359375 112.31640625 C-44.4259375 112.31640625 -52.0159375 112.31640625 -59.8359375 112.31640625 C-59.8359375 75.02640625 -59.8359375 37.73640625 -59.8359375 -0.68359375 C-53.2359375 -0.68359375 -46.6359375 -0.68359375 -39.8359375 -0.68359375 C-39.5059375 0.96640625 -39.1759375 2.61640625 -38.8359375 4.31640625 C-38.31644531 3.97867188 -37.79695312 3.6409375 -37.26171875 3.29296875 C-36.56433594 2.84695312 -35.86695313 2.4009375 -35.1484375 1.94140625 C-34.46394531 1.50054687 -33.77945313 1.0596875 -33.07421875 0.60546875 C-23.76377947 -4.75656434 -9.64420887 -4.75582121 0 0 Z M-34.40234375 24.078125 C-37.96327372 29.07965912 -39.30080978 34.19716905 -38.8359375 40.31640625 C-37.40628015 46.11913316 -34.56047247 50.52010165 -29.8203125 54.15625 C-25.10477737 56.91316719 -20.15687096 57.81836817 -14.7734375 56.87890625 C-8.52708934 54.93004562 -4.10428902 50.45674945 -0.8359375 44.94140625 C1.05307296 38.09374334 1.02976399 32.46498034 -2.4921875 26.17578125 C-5.46242069 22.06580742 -9.01775593 18.92246677 -13.8359375 17.31640625 C-22.44619151 16.34271032 -28.52978226 17.47332392 -34.40234375 24.078125 Z " fill="#4F1B00" transform="translate(902.8359375,194.68359375)"/>
<path d="M0 0 C45.04 0 45.04 0 53.875 7.125 C59.86821995 13.79830165 61.70817623 21.3332398 61.390625 30.16796875 C60.50976632 36.55419417 57.18569498 41.21634859 53 46 C53.87011719 46.61875 53.87011719 46.61875 54.7578125 47.25 C62.29308355 52.82062942 69.20070799 59.3938625 71 69 C71.79379678 78.30996219 71.62379679 86.62238909 67 95 C66.443125 96.03125 65.88625 97.0625 65.3125 98.125 C57.13455735 108.29217195 48.79367754 112.17233178 36 114 C24.12 114 12.24 114 0 114 C0 76.38 0 38.76 0 0 Z M15 14 C15 22.91 15 31.82 15 41 C29.75628389 41.97823734 29.75628389 41.97823734 42.9375 36.6875 C46.35889556 32.25819595 46.35889556 32.25819595 46.80859375 26.82421875 C45.95177026 22.10782999 45.00558447 18.9452827 41 16 C37.81714011 14.08873648 35.49115112 13.7617308 31.796875 13.8046875 C30.47187988 13.81218018 30.47187988 13.81218018 29.12011719 13.81982422 C28.00797852 13.83803223 26.89583984 13.85624023 25.75 13.875 C20.42875 13.936875 20.42875 13.936875 15 14 Z M15 53 C15 68.51 15 84.02 15 100 C32.96087796 101.05929673 32.96087796 101.05929673 48.3125 94.75 C53.35013428 89.59521143 56.06187378 84.0542786 56.3125 76.8125 C56.20011927 70.59069408 54.34335585 65.56839629 50.12890625 60.94921875 C39.65922934 51.38994853 29.07620677 53 15 53 Z " fill="#4E1B00" transform="translate(1423,156)"/>
<path d="M0 0 C1.18190918 0.00918457 1.18190918 0.00918457 2.38769531 0.01855469 C11.30475399 0.25737167 18.00650634 3.19229415 25.125 8.4375 C25.455 6.1275 25.785 3.8175 26.125 1.4375 C30.415 1.4375 34.705 1.4375 39.125 1.4375 C39.19466674 12.36464595 39.24789581 23.29173861 39.28043652 34.21906185 C39.29605843 39.29366365 39.31723305 44.36811292 39.35131836 49.44262695 C39.38403594 54.34447786 39.40187912 59.24618252 39.40963173 64.14813423 C39.41515303 66.01353824 39.42593461 67.8789347 39.44219017 69.74427605 C39.46412952 72.36736915 39.46696009 74.98986628 39.46557617 77.61303711 C39.476362 78.3754924 39.48714783 79.13794769 39.4982605 79.92350769 C39.4389891 90.3804579 35.35278593 97.81207487 28.37890625 105.31640625 C19.25270321 114.10108818 7.68433493 116.78992753 -4.65234375 116.65234375 C-13.33159917 116.07372672 -21.80412972 113.63760191 -28.875 108.4375 C-30.875 105.4375 -30.875 105.4375 -30.1953125 101.86328125 C-29.81008498 100.48841752 -29.41109893 99.11735079 -29 97.75 C-28.80019531 97.04810547 -28.60039063 96.34621094 -28.39453125 95.62304688 C-27.89970374 93.89115057 -27.38886825 92.16384252 -26.875 90.4375 C-26.25625 91.01757812 -26.25625 91.01757812 -25.625 91.609375 C-17.29931926 99.11735495 -9.73380629 101.83415914 1.4765625 101.70703125 C8.74476819 101.17008672 14.03355034 99.00980506 19.0625 93.6875 C25.11587171 85.92090988 25.56105485 79.1276077 25.125 69.4375 C24.61453125 69.83582031 24.1040625 70.23414063 23.578125 70.64453125 C14.68754581 77.12330438 4.85236433 79.56766229 -6.046875 78.15625 C-15.64814166 76.43464356 -24.72701019 71.06900616 -30.53515625 63.18359375 C-37.23252327 52.66856297 -39.45728281 42.15927365 -37.44140625 29.7734375 C-34.71430023 19.10215306 -28.72537763 11.36056743 -19.81640625 5.09375 C-13.24953892 1.39607172 -7.53165445 -0.10007771 0 0 Z M-17.3125 21.8125 C-22.97360164 29.31786988 -24.02793706 36.11423016 -22.875 45.4375 C-20.66667089 52.80882079 -16.24707097 58.18945269 -9.875 62.4375 C-3.40646768 65.61296132 4.128336 65.61138355 10.984375 63.59765625 C18.50355674 60.21402447 22.76856418 54.97548748 26 47.5 C28.42551642 40.04916214 27.4471275 33.75869496 24.328125 26.6640625 C22.69576666 23.64313961 20.75998603 21.62261037 18.125 19.4375 C17.320625 18.715625 16.51625 17.99375 15.6875 17.25 C5.09984354 9.76116982 -8.81085178 12.53607103 -17.3125 21.8125 Z " fill="#4E1B00" transform="translate(1937.875,192.5625)"/>
<path d="M0 0 C8.19960242 6.4589047 12.5435887 13.43607356 15.09765625 23.65234375 C15.09765625 28.93234375 15.09765625 34.21234375 15.09765625 39.65234375 C-3.71234375 39.65234375 -22.52234375 39.65234375 -41.90234375 39.65234375 C-36.87293359 48.00414408 -36.87293359 48.00414408 -29.33984375 52.90234375 C-20.49148365 54.83289504 -12.72475109 54.32488859 -4.90234375 49.65234375 C-2.48044377 48.06913877 -0.20251259 46.41417521 2.09765625 44.65234375 C7.90303298 61.37182872 7.90303298 61.37182872 6.09765625 66.65234375 C4.09375 68.1640625 4.09375 68.1640625 1.53515625 69.33984375 C0.70886719 69.73558594 -0.11742187 70.13132812 -0.96875 70.5390625 C-7.64721813 73.07350114 -13.68979139 74.01798521 -20.77734375 73.96484375 C-21.56818359 73.9592041 -22.35902344 73.95356445 -23.17382812 73.94775391 C-35.0614379 73.70111287 -44.90332091 69.4891093 -53.71484375 61.40234375 C-62.19028063 52.34721897 -64.36583665 41.10859902 -64.1484375 29.11328125 C-63.40556439 18.66589115 -58.84614192 9.06455636 -51.21484375 1.83984375 C-36.5086936 -10.12304378 -15.37014667 -11.08710756 0 0 Z M-40.75 19.71484375 C-41.13027344 20.35421875 -41.51054688 20.99359375 -41.90234375 21.65234375 C-41.57234375 22.64234375 -41.24234375 23.63234375 -40.90234375 24.65234375 C-29.68234375 24.32234375 -18.46234375 23.99234375 -6.90234375 23.65234375 C-8.96639721 17.46018337 -9.78629553 16.19422329 -14.90234375 12.65234375 C-25.47504072 8.02678882 -33.60932442 11.46478531 -40.75 19.71484375 Z " fill="#4E1B00" transform="translate(1349.90234375,198.34765625)"/>
<path d="M0 0 C8.38505497 6.27163686 14.46479194 15.38753222 16.38671875 25.78515625 C17.33004233 38.65147129 15.82598579 49.71605588 7.23828125 59.8203125 C-0.42115547 67.94836454 -9.02177834 73.10720272 -20.375 74.12109375 C-34.83931776 74.26501731 -45.02469932 71.13516646 -55.58203125 60.87109375 C-64.12706617 51.78294221 -66.13615202 41.9169322 -65.88671875 29.7109375 C-65.06914463 17.9729091 -59.75953665 9.46830883 -51.36328125 1.53515625 C-36.42451654 -10.59836531 -15.73950923 -10.05648392 0 0 Z M-40.17578125 20.58203125 C-43.50603128 25.31250004 -44.95812332 29.99383803 -44.61328125 35.78515625 C-43.41775127 41.52160272 -40.71645781 45.68197969 -36.61328125 49.78515625 C-31.71069597 52.9446001 -26.31649854 54.56478094 -20.53515625 53.34765625 C-14.59601215 51.35282922 -10.23741246 48.30535986 -6.80078125 42.97265625 C-4.29156144 36.23738202 -4.12467992 31.47205524 -6.671875 24.82421875 C-8.83292383 20.14344079 -11.82697178 16.93471971 -16.4296875 14.51953125 C-25.472912 11.47816058 -33.97491989 13.45104069 -40.17578125 20.58203125 Z " fill="#4E1B00" transform="translate(1212.61328125,198.21484375)"/>
<path d="M0 0 C26.07 0 52.14 0 79 0 C79 6.93 79 13.86 79 21 C70.09 21 61.18 21 52 21 C52 51.69 52 82.38 52 114 C43.75 114 35.5 114 27 114 C27 83.31 27 52.62 27 21 C18.09 21 9.18 21 0 21 C0 14.07 0 7.14 0 0 Z " fill="#4F1C00" transform="translate(670,156)"/>
<path d="M0 0 C1.49609375 1.28125 1.49609375 1.28125 2.49609375 4.28125 C2.15063477 6.3659668 2.15063477 6.3659668 1.5 8.73046875 C1.27119141 9.57802734 1.04238281 10.42558594 0.80664062 11.29882812 C0.55978516 12.17990234 0.31292969 13.06097656 0.05859375 13.96875 C-0.30588867 15.30776367 -0.30588867 15.30776367 -0.67773438 16.67382812 C-1.27899931 18.87846622 -1.88797282 21.08067345 -2.50390625 23.28125 C-3.19444092 22.67180542 -3.19444092 22.67180542 -3.89892578 22.05004883 C-4.51364746 21.51404053 -5.12836914 20.97803223 -5.76171875 20.42578125 C-6.3664502 19.89573486 -6.97118164 19.36568848 -7.59423828 18.81958008 C-13.06240226 14.41470904 -19.40507626 11.88094004 -26.50390625 12.28125 C-28.71935245 13.20044095 -28.71935245 13.20044095 -30.50390625 14.28125 C-30.6320599 16.6665233 -30.6320599 16.6665233 -29.50390625 19.28125 C-25.76145837 21.60156768 -22.04212833 23.08073589 -17.91796875 24.6171875 C-8.98203391 27.96168367 -1.74392343 31.11747263 3.49609375 39.46875 C5.7077175 47.90056553 5.48242257 55.43017457 1.10546875 63.08984375 C-3.43282356 69.26941168 -9.99917147 72.98400299 -17.50390625 74.28125 C-31.02283398 75.44617888 -42.46032879 73.59495438 -53.50390625 65.28125 C-52.88378106 62.55089299 -52.25799738 59.82204236 -51.62890625 57.09375 C-51.36787109 55.94036133 -51.36787109 55.94036133 -51.1015625 54.76367188 C-50.17845581 50.78063746 -49.17318439 47.03336617 -47.50390625 43.28125 C-46.85035156 43.86132812 -46.85035156 43.86132812 -46.18359375 44.453125 C-39.215948 50.54604466 -33.32311983 54.78809631 -23.81640625 55.59375 C-20.27526331 55.25967991 -18.82179752 54.97000387 -16.50390625 52.28125 C-16.1696489 49.65499861 -16.1696489 49.65499861 -16.50390625 47.28125 C-17.29925781 47.02859375 -18.09460938 46.7759375 -18.9140625 46.515625 C-23.32213563 44.99990018 -27.62888384 43.29806919 -31.94140625 41.53125 C-32.76189453 41.20898438 -33.58238281 40.88671875 -34.42773438 40.5546875 C-41.17666216 37.7754004 -46.39119515 34.53888633 -50.4140625 28.3359375 C-52.7698071 21.7330978 -52.86233864 13.33556756 -50.00390625 6.84375 C-46.12203661 0.49655263 -40.30455285 -4.28659697 -33.1171875 -6.28515625 C-20.98258468 -8.29852084 -10.35598049 -6.50113866 0 0 Z " fill="#4F1B00" transform="translate(986.50390625,197.71875)"/>
<path d="M0 0 C9.52829856 7.0863728 16.12036629 15.80379942 18.140625 27.65234375 C19.23295656 39.56716035 16.61741676 50.19940426 9.0859375 59.54296875 C1.87157545 67.55707533 -6.38120131 72.95946124 -17.328125 73.66015625 C-29.91401828 73.98261076 -40.02128338 72.23445223 -49.60546875 63.421875 C-58.00142403 55.12914868 -62.50859492 46.17281079 -62.640625 34.24609375 C-62.03328283 21.64004038 -57.61647956 11.88273564 -48.41796875 3.234375 C-34.89419853 -7.78945552 -14.89745401 -9.02334546 0 0 Z M-42.09765625 17.37890625 C-46.42635638 23.2439585 -48.31571808 29.70871162 -47.99609375 36.96875 C-47.00812538 43.17319138 -44.03994595 48.9873978 -39.60546875 53.421875 C-31.71888515 59.0528637 -25.31274075 60.2604914 -15.60546875 59.421875 C-12.59637793 58.49857686 -10.18736736 57.20461451 -7.60546875 55.421875 C-6.69796875 54.803125 -5.79046875 54.184375 -4.85546875 53.546875 C0.76248603 48.24102882 3.41107803 42.3188771 3.76953125 34.671875 C3.61250616 27.73136595 1.44341929 21.83851217 -3.04296875 16.546875 C-4.31140625 15.495 -4.31140625 15.495 -5.60546875 14.421875 C-6.40984375 13.7 -7.21421875 12.978125 -8.04296875 12.234375 C-19.09567663 4.41660601 -33.37492818 7.86504703 -42.09765625 17.37890625 Z " fill="#4E1B00" transform="translate(1662.60546875,197.578125)"/>
<path d="M0 0 C9.70308945 8.0656931 15.74305483 17.01194614 16.98828125 29.75 C17.27750717 39.73590534 15.05362638 49.69333473 8.5078125 57.47265625 C0.12184539 66.24996849 -8.2324255 72.25989303 -20.68139648 72.60522461 C-33.08423013 72.72379295 -43.11392397 70.18503537 -52.25 61.3125 C-60.82359468 52.31362781 -63.88198229 42.82555608 -63.72070312 30.58984375 C-63.27862129 20.07393956 -59.5280541 11.91732388 -52.25 4.3125 C-38.00709222 -8.70958711 -16.18279527 -11.30276946 0 0 Z M-44.84375 18.13671875 C-48.89402107 24.40338815 -50.29753864 31.11255594 -48.81640625 38.46484375 C-46.77796338 45.87160821 -42.28590126 51.39219314 -36 55.75 C-30.01801631 59.14885437 -23.97063045 58.97843946 -17.25 58.3125 C-8.72122733 55.72133337 -3.84031842 50.62969736 0.625 43.1875 C2.85636434 37.26837184 2.83812623 29.91618689 1.0234375 23.90625 C0.07314755 21.89750701 -0.9828634 20.13583847 -2.25 18.3125 C-2.95125 17.260625 -3.6525 16.20875 -4.375 15.125 C-8.57646557 10.46379959 -14.07111996 7.83184272 -20.21484375 6.828125 C-30.52240522 6.35055458 -38.41692041 10.08802415 -44.84375 18.13671875 Z " fill="#4E1B00" transform="translate(1571.25,198.6875)"/>
<path d="M0 0 C7.26 0 14.52 0 22 0 C22 8.25 22 16.5 22 25 C26.95 25 31.9 25 37 25 C37 31.27 37 37.54 37 44 C32.38 44 27.76 44 23 44 C23 63.14 23 82.28 23 102 C15.41 102 7.82 102 0 102 C0 82.86 0 63.72 0 44 C-4.62 44 -9.24 44 -14 44 C-14 37.73 -14 31.46 -14 25 C-9.38 25 -4.76 25 0 25 C0 16.75 0 8.5 0 0 Z " fill="#4F1B00" transform="translate(1246,168)"/>
<path d="M0 0 C7.26 0 14.52 0 22 0 C22 40.26 22 80.52 22 122 C14.74 122 7.48 122 0 122 C-1.62540382 120.37459618 -1.12602469 118.57593675 -1.12698364 116.33081055 C-1.12980347 115.32118256 -1.13262329 114.31155457 -1.13552856 113.27133179 C-1.13350433 112.15440948 -1.1314801 111.03748718 -1.12939453 109.88671875 C-1.13114685 108.71775055 -1.13289917 107.54878235 -1.13470459 106.34439087 C-1.13836264 103.12959561 -1.13748976 99.91484122 -1.1343255 96.70004654 C-1.13180142 93.34259197 -1.13413958 89.98514022 -1.13571167 86.62768555 C-1.13753322 80.98843899 -1.13512743 75.34920551 -1.13037109 69.70996094 C-1.1249285 63.1814974 -1.12669116 56.65306509 -1.1321975 50.12460232 C-1.13672904 44.52885641 -1.13737898 38.93311993 -1.13475883 33.33737278 C-1.13319628 29.99113516 -1.13300169 26.64491223 -1.13629532 23.29867554 C-1.13882014 19.57018895 -1.13498364 15.84176327 -1.12939453 12.11328125 C-1.13141876 10.99635895 -1.13344299 9.87943665 -1.13552856 8.72866821 C-1.13270874 7.71904022 -1.12988892 6.70941223 -1.12698364 5.66918945 C-1.12660662 4.7864888 -1.12622959 3.90378815 -1.12584114 2.99433899 C-1 1 -1 1 0 0 Z " fill="#501A00" transform="translate(1377,148)"/>
<path d="M0 0 C7.92 0 15.84 0 24 0 C24 37.62 24 75.24 24 114 C16.08 114 8.16 114 0 114 C0 76.38 0 38.76 0 0 Z " fill="#4E1B00" transform="translate(536,156)"/>
<path d="M0 0 C9.29511462 6.64166494 12.88881867 13.93923448 15 25 C15.35101632 28.97466291 15.35410777 32.90304833 15.29296875 36.890625 C15.28872391 37.96125183 15.28447906 39.03187866 15.28010559 40.13494873 C15.26350325 43.50690398 15.2258869 46.87822977 15.1875 50.25 C15.17242929 52.55598087 15.1587451 54.86197123 15.14648438 57.16796875 C15.11366042 62.77888311 15.06200859 68.38933538 15 74 C10.05 74 5.1 74 0 74 C-0.00410889 72.59830566 -0.00821777 71.19661133 -0.01245117 69.75244141 C-0.03434467 64.51509633 -0.08874062 59.27849163 -0.15258789 54.04150391 C-0.17567894 51.78181087 -0.19014256 49.52201156 -0.19555664 47.26220703 C-0.2049111 43.99965873 -0.24604536 40.73876154 -0.29296875 37.4765625 C-0.2890361 36.47823395 -0.28510345 35.4799054 -0.28105164 34.45132446 C-0.44946743 26.2184211 -2.62969053 19.290064 -8.625 13.4375 C-13.78815136 10.3124347 -19.1282197 10.28608136 -25 11 C-30.16345171 13.06025143 -33.94320242 16.35366768 -37 21 C-37.97241945 23.91725834 -38.15167819 25.88803439 -38.20532227 28.93041992 C-38.22526749 29.93123093 -38.24521271 30.93204193 -38.26576233 31.96318054 C-38.28247482 33.04138565 -38.29918732 34.11959076 -38.31640625 35.23046875 C-38.33718735 36.33602615 -38.35796844 37.44158356 -38.37937927 38.5806427 C-38.44482332 42.1161979 -38.50373603 45.65182806 -38.5625 49.1875 C-38.6056901 51.58269008 -38.64930454 53.97787255 -38.69335938 56.37304688 C-38.80049952 62.24862088 -38.90178168 68.12427036 -39 74 C-43.95 74 -48.9 74 -54 74 C-54 48.92 -54 23.84 -54 -2 C-49.38 -2 -44.76 -2 -40 -2 C-39.67 0.64 -39.34 3.28 -39 6 C-38.52691406 5.52949219 -38.05382813 5.05898437 -37.56640625 4.57421875 C-26.99662391 -5.37744767 -12.86446842 -7.3851578 0 0 Z " fill="#4F1B00" transform="translate(1869,196)"/>
<path d="M0 0 C2.43430815 6.57263201 3.90109517 13.08336373 5 20 C3.72125 19.9175 2.4425 19.835 1.125 19.75 C-4.46757469 19.78528438 -9.24405147 21.00366943 -14 24 C-17.89857436 28.43384773 -20.08090524 33.27734934 -20.20532227 39.19604492 C-20.22526749 40.03668991 -20.24521271 40.8773349 -20.26576233 41.74345398 C-20.29083107 43.09827629 -20.29083107 43.09827629 -20.31640625 44.48046875 C-20.33718735 45.40845779 -20.35796844 46.33644684 -20.37937927 47.29255676 C-20.44477323 50.2574624 -20.50371262 53.22245672 -20.5625 56.1875 C-20.60569487 58.1972748 -20.64930947 60.20704063 -20.69335938 62.21679688 C-20.80123429 67.14444167 -20.90038332 72.07215361 -21 77 C-28.59 77 -36.18 77 -44 77 C-44 51.92 -44 26.84 -44 1 C-37.4 1 -30.8 1 -24 1 C-23.67 3.97 -23.34 6.94 -23 10 C-22.5153125 9.52949219 -22.030625 9.05898437 -21.53125 8.57421875 C-14.82347143 2.34372443 -9.21486225 -0.57592889 0 0 Z " fill="#4E1B00" transform="translate(791,193)"/>
<path d="M0 0 C4.95 0 9.9 0 15 0 C15 40.26 15 80.52 15 122 C10.05 122 5.1 122 0 122 C0 81.74 0 41.48 0 0 Z " fill="#4E1C00" transform="translate(1698,148)"/>
<path d="M0 0 C7.59 0 15.18 0 23 0 C23 25.08 23 50.16 23 76 C15.41 76 7.82 76 0 76 C0 50.92 0 25.84 0 0 Z " fill="#4F1B00" transform="translate(805,194)"/>
<path d="M0 0 C-2.90803406 4.5658207 -6.12244862 8.62065836 -9.6875 12.6875 C-10.75093594 13.91455407 -11.81342494 15.1424294 -12.875 16.37109375 C-13.39964844 16.97808105 -13.92429687 17.58506836 -14.46484375 18.21044922 C-20.85513539 25.18832435 -20.85513539 25.18832435 -26 33 C-20.29350668 40.42187207 -14.47949784 47.70380779 -8.3125 54.75 C5.17457428 70.16889933 5.17457428 70.16889933 8 76 C-8.60823654 77.67265048 -8.60823654 77.67265048 -13.94921875 73.9375 C-16.21786524 71.07012634 -18.10756961 68.12679342 -20 65 C-21.47024119 63.14271651 -22.97049107 61.30878787 -24.5 59.5 C-25.23863281 58.59636719 -25.97726562 57.69273437 -26.73828125 56.76171875 C-28.27395979 54.88654651 -29.81314768 53.01424386 -31.35546875 51.14453125 C-33.58282595 48.43961672 -35.79354896 45.72197699 -38 43 C-38.63808594 42.23171875 -39.27617188 41.4634375 -39.93359375 40.671875 C-40.49175781 39.97578125 -41.04992188 39.2796875 -41.625 38.5625 C-42.11226562 37.96566406 -42.59953125 37.36882812 -43.1015625 36.75390625 C-44 35 -44 35 -43.9609375 33.15625 C-42.53637451 29.95966962 -40.29664097 27.5322312 -38 24.9375 C-36.99528238 23.77804634 -35.99138868 22.61787825 -34.98828125 21.45703125 C-34.23345459 20.58812256 -34.23345459 20.58812256 -33.46337891 19.70166016 C-31.32424122 17.21420776 -29.25529072 14.67187 -27.1875 12.125 C-26.07955078 10.80435547 -26.07955078 10.80435547 -24.94921875 9.45703125 C-22.99371311 7.11511983 -22.99371311 7.11511983 -21.70703125 4.76171875 C-17.07437273 -2.71950002 -7.73832565 -0.54288922 0 0 Z " fill="#4E1B00" transform="translate(1758,194)"/>
<path d="M0 0 C4.95 0 9.9 0 15 0 C15 25.08 15 50.16 15 76 C10.05 76 5.1 76 0 76 C0 50.92 0 25.84 0 0 Z " fill="#4E1C00" transform="translate(1777,194)"/>
<path d="M0 0 C13.53 0 27.06 0 41 0 C41 6.27 41 12.54 41 19 C27.47 19 13.94 19 0 19 C0 12.73 0 6.46 0 0 Z " fill="#4F1B00" transform="translate(998,222)"/>
<path d="M0 0 C2.81992717 1.82120296 4.50345478 3.00690956 6 6 C6.42526125 10.62062705 6.56310381 14.71290557 4.6875 19 C2.28994105 21.84155135 0.35197405 22.91200649 -3.25 23.8125 C-7.78679815 24.03933991 -10.08871232 23.2877343 -14 21 C-16.89432673 17.73460574 -17.90492391 15.774191 -18.4375 11.4375 C-17.7835424 6.29926175 -16.18016874 4.06777172 -12.375 0.625 C-7.91766916 -1.52112225 -4.70497415 -1.37769961 0 0 Z " fill="#4F1B00" transform="translate(822,160)"/>
<path d="M0 0 C3.38031589 1.18767855 3.93216817 1.89825225 6 5 C6.67226891 11.94677871 6.67226891 11.94677871 4.125 15.9375 C0.96217265 19.00730302 0.96217265 19.00730302 -2.05859375 18.984375 C-3.23615234 18.86835938 -3.23615234 18.86835938 -4.4375 18.75 C-5.61119141 18.64945313 -5.61119141 18.64945313 -6.80859375 18.546875 C-9.43866425 17.89052942 -10.38407185 17.15788559 -12 15 C-13.53078556 8.22080679 -13.53078556 8.22080679 -11.75 4.125 C-8.17409766 -0.21716713 -5.39735085 -0.37876146 0 0 Z " fill="#4E1B00" transform="translate(1788,162)"/>
</svg>
